<svg width="512" height="512" viewBox="0 0 542 538" fill="none" xmlns="http://www.w3.org/2000/svg">
<path d="M469.596 114.556L442.607 130.571C432.76 137.89 420.783 141.847 408.474 141.847H312.957C303.701 141.85 294.672 144.69 287.108 149.976C279.543 155.262 273.813 162.737 270.701 171.376C267.59 180.015 267.25 189.396 269.727 198.234C272.205 207.072 277.379 214.935 284.541 220.745L341.43 266.861C363.464 284.726 380.638 307.769 391.389 333.892C402.14 360.015 406.126 388.388 402.984 416.428L401.675 428.182C399.901 443.964 396.45 459.517 391.378 474.58L384.779 494.199M39.05 198.234L92.8825 211.19C101.817 209.712 110.978 210.369 119.603 213.107C128.229 215.846 136.071 220.585 142.476 226.933C148.88 233.28 153.663 241.05 156.426 249.599C159.189 258.147 159.853 267.225 158.362 276.079L154.522 298.827C151.202 318.669 154.382 339.044 163.596 356.965C172.809 374.886 187.572 389.413 205.722 398.416C220.217 405.587 231.808 417.449 238.573 432.038C245.339 446.626 246.875 463.067 242.927 478.639V527" stroke="#2563EB" stroke-width="30"/>
<path d="M271 522.387C412.385 522.387 527 408.805 527 268.694C527 128.582 412.385 15 271 15C129.615 15 15 128.582 15 268.694C15 408.805 129.615 522.387 271 522.387Z" stroke="#2563EB" stroke-width="30"/>
</svg>




