<svg width="150" height="150" viewBox="0 0 150 150" fill="none" xmlns="http://www.w3.org/2000/svg">
<rect width="150" height="150" rx="15" fill="url(#paint0_linear_116_42)"/>
<path d="M139.744 114H118.744V77.32C118.744 71.5333 117.577 67.4267 115.244 65C112.91 62.5733 108.71 61.36 102.644 61.36C96.2969 61.36 91.9569 62.7133 89.6236 65.42C87.3836 68.1267 86.2636 72.5133 86.2636 78.58H83.6036L81.9236 65.42H85.9836C86.5436 61.4067 87.7569 57.6733 89.6236 54.22C91.5836 50.7667 94.4303 47.9667 98.1636 45.82C101.99 43.58 106.89 42.46 112.864 42.46C118.93 42.46 123.924 43.6733 127.844 46.1C131.857 48.5267 134.844 51.84 136.804 56.04C138.764 60.24 139.744 65 139.744 70.32V114ZM32.7836 114H11.7836V43.86H31.2436V65.7L32.7836 66.4V114ZM86.2636 114H65.2636V77.32C65.2636 71.5333 64.0969 67.4267 61.7636 65C59.4303 62.5733 55.2303 61.36 49.1636 61.36C42.7236 61.36 38.3836 62.7133 36.1436 65.42C33.9036 68.1267 32.7836 72.5133 32.7836 78.58H30.1236L28.5836 65.14H32.3636C33.0169 61.22 34.2769 57.58 36.1436 54.22C38.0103 50.7667 40.7636 47.9667 44.4036 45.82C48.0436 43.58 52.8036 42.46 58.6836 42.46C64.7503 42.46 69.6969 43.72 73.5236 46.24C77.4436 48.76 80.3369 52.12 82.2036 56.32C84.0703 60.52 85.0036 65.1867 85.0036 70.32H86.2636V114Z" fill="white"/>
<defs>
<linearGradient id="paint0_linear_116_42" x1="75" y1="0" x2="75" y2="150" gradientUnits="userSpaceOnUse">
<stop stop-color="#2563EB"/>
<stop offset="1" stop-color="#0033A2"/>
</linearGradient>
</defs>
</svg>
